<?xml version="1.0" standalone="no"?>
<!DOCTYPE svg PUBLIC "-//W3C//DTD SVG 20010904//EN"
 "http://www.w3.org/TR/2001/REC-SVG-20010904/DTD/svg10.dtd">
<svg version="1.0" xmlns="http://www.w3.org/2000/svg"
 width="500.000000pt" height="500.000000pt" viewBox="0 0 500.000000 500.000000"
 preserveAspectRatio="xMidYMid meet">
<metadata>
Created by potrace 1.14, written by Peter Selinger 2001-2017
</metadata>
<g transform="translate(0.000000,500.000000) scale(0.100000,-0.100000)"
fill="#000000" stroke="none">
<path d="M0 2500 l0 -2500 2500 0 2500 0 0 2500 0 2500 -2500 0 -2500 0 0
-2500z m2728 1025 c92 -19 220 -77 282 -130 59 -49 126 -139 145 -194 22 -64
20 -118 -4 -131 -25 -13 -336 -13 -361 0 -10 6 -28 27 -40 48 -51 90 -177 126
-308 87 -117 -35 -134 -154 -32 -222 39 -27 125 -54 265 -83 299 -63 445 -142
510 -274 49 -100 49 -266 0 -373 -56 -123 -210 -231 -385 -272 -302 -70 -623
-8 -788 152 -52 51 -109 163 -118 234 -6 47 -4 52 19 68 22 14 49 16 186 13
l160 -3 63 -66 c84 -89 121 -103 265 -97 92 3 114 7 151 28 50 28 72 63 72
116 0 76 -90 125 -325 175 -220 47 -363 108 -445 190 -60 60 -90 122 -103 215
-37 254 132 461 423 519 91 18 275 18 368 0z m1388 -20 c104 -18 226 -73 295
-133 93 -83 139 -201 139 -358 0 -179 -72 -311 -218 -399 l-48 -29 153 -275
c84 -152 153 -283 153 -291 0 -36 -20 -40 -207 -40 -176 0 -183 1 -203 23 -12
12 -78 133 -148 269 l-127 248 -112 0 -113 0 0 -258 c0 -187 -3 -261 -12 -270
-8 -8 -64 -12 -184 -12 -167 0 -173 1 -188 22 -14 20 -16 108 -16 748 0 640 2
728 16 748 l15 22 358 0 c274 0 379 -4 447 -15z m-28 -1580 c92 -19 220 -77
282 -130 59 -49 126 -139 145 -194 22 -64 20 -118 -4 -131 -25 -13 -336 -13
-361 0 -10 6 -28 27 -40 48 -51 90 -177 126 -308 87 -117 -35 -134 -154 -32
-222 39 -27 125 -54 265 -83 372 -79 517 -184 544 -395 19 -152 -20 -269 -122
-369 -142 -140 -395 -207 -666 -176 -181 20 -321 78 -419 173 -52 51 -109 163
-118 234 -6 47 -4 52 19 68 22 14 49 16 186 13 l160 -3 63 -66 c84 -89 121
-103 265 -97 92 3 114 7 151 28 50 28 72 63 72 116 0 76 -90 125 -325 175
-220 47 -363 108 -445 190 -59 59 -90 124 -103 217 -37 251 133 459 423 517
91 18 275 18 368 0z m-1266 -20 c47 -8 109 -24 139 -35 124 -48 230 -151 270
-266 27 -75 37 -229 19 -316 -34 -173 -160 -297 -357 -349 -62 -17 -120 -22
-285 -26 l-208 -6 0 -241 c0 -202 -3 -245 -16 -264 -15 -21 -21 -22 -194 -22
-149 0 -181 3 -194 16 -14 14 -16 96 -16 751 0 671 1 738 17 755 15 17 40 18
378 18 275 0 383 -4 447 -15z"/>
<path d="M3680 3025 l0 -185 163 0 c136 0 168 3 203 19 106 48 125 228 33 305
-44 38 -90 46 -251 46 l-148 0 0 -185z"/>
<path d="M2390 1416 l0 -196 141 0 c164 0 218 11 264 54 83 78 63 253 -35 310
-31 19 -55 21 -202 24 l-168 4 0 -196z"/>
</g>
</svg>
